<svg width="20" height="20" viewBox="0 0 20 20" fill="none" xmlns="http://www.w3.org/2000/svg">
<path d="M18.3333 4.9225C17.7086 5.19531 17.047 5.3742 16.37 5.45333C17.0806 5.03603 17.615 4.37425 17.8733 3.59167C17.2 3.98361 16.4656 4.25967 15.7008 4.40833C15.3788 4.071 14.9914 3.80282 14.5623 3.62015C14.1332 3.43747 13.6713 3.34414 13.205 3.34583C11.3166 3.34583 9.78579 4.85417 9.78579 6.7125C9.78579 6.97583 9.81579 7.23333 9.87413 7.47917C8.51961 7.41474 7.19339 7.06867 5.9801 6.46303C4.76681 5.85739 3.69309 5.00548 2.82746 3.96167C2.52398 4.47367 2.36447 5.05815 2.36579 5.65333C2.36637 6.20997 2.50565 6.75769 2.77103 7.24699C3.03642 7.7363 3.41955 8.15176 3.88579 8.45583C3.3437 8.43833 2.81331 8.2936 2.33746 8.03333V8.075C2.33746 9.70667 3.51663 11.0675 5.07913 11.3775C4.78547 11.4554 4.48294 11.4949 4.17913 11.495C3.95829 11.495 3.74413 11.4742 3.53496 11.4325C3.75836 12.1058 4.18588 12.6928 4.75814 13.1119C5.3304 13.5311 6.019 13.7617 6.72829 13.7717C5.51168 14.7088 4.01814 15.215 2.48246 15.2108C2.20579 15.2108 1.93413 15.1942 1.66663 15.1642C3.23434 16.1564 5.05212 16.6819 6.90746 16.6792C13.1966 16.6792 16.635 11.5483 16.635 7.09917L16.6233 6.66333C17.294 6.19139 17.8734 5.60154 18.3333 4.9225Z" fill="white"/>
</svg>
