<svg width="20" height="20" viewBox="0 0 20 20" fill="none" xmlns="http://www.w3.org/2000/svg">
<path d="M14.8433 4.18083H5.12079C3.21246 4.18083 1.66663 5.70999 1.66663 7.59666V12.4033C1.66663 14.29 3.21329 15.82 5.12079 15.82H14.8433C16.7516 15.82 18.2975 14.29 18.2975 12.4033V7.59666C18.2975 5.70999 16.7508 4.17999 14.8433 4.17999V4.18083ZM12.5075 10.2333L7.95996 12.3792C7.93222 12.3925 7.90156 12.3986 7.87082 12.397C7.84008 12.3953 7.81027 12.3858 7.78415 12.3695C7.75804 12.3532 7.73647 12.3306 7.72146 12.3037C7.70645 12.2768 7.69848 12.2466 7.69829 12.2158V7.79166C7.69885 7.76072 7.70723 7.73043 7.72264 7.7036C7.73806 7.67677 7.76002 7.65428 7.78648 7.63822C7.81293 7.62217 7.84302 7.61307 7.87393 7.61178C7.90485 7.61048 7.93559 7.61704 7.96329 7.63083L12.5116 9.90999C12.5419 9.9251 12.5673 9.94845 12.585 9.97735C12.6026 10.0062 12.6117 10.0395 12.6113 10.0734C12.6108 10.1072 12.6009 10.1403 12.5825 10.1687C12.5641 10.1972 12.5381 10.2198 12.5075 10.2342V10.2333Z" fill="white"/>
</svg>
