<svg width="93" height="33" viewBox="0 0 93 33" fill="none" xmlns="http://www.w3.org/2000/svg">
<g clip-path="url(#clip0_737_315)">
<path d="M3.70498 13.0063C2.80791 13.0056 1.94771 12.7287 1.31236 12.2361C0.677012 11.7435 0.318195 11.0754 0.314331 10.3777V9.18776H3.85486V10.2369H4.60793H12.422H13.1769V7.9893H12.4238H3.69584C2.80147 7.98707 1.94443 7.71023 1.31115 7.21901C0.677883 6.7278 0.319627 6.06196 0.314331 5.36635V2.84291C0.317217 2.14618 0.674098 1.47858 1.30718 0.985653C1.94027 0.492721 2.79822 0.214424 3.69401 0.211426H13.3816C14.2745 0.216961 15.129 0.494627 15.7616 0.984785C16.3942 1.47494 16.7544 2.1385 16.7649 2.83296V4.02431H13.1769V2.97655H12.422H4.60793H3.85486V5.21565H4.60793H13.3816C14.276 5.22122 15.1319 5.49986 15.7648 5.99155C16.3976 6.48323 16.7568 7.1486 16.7649 7.84429V10.3677C16.7716 10.7145 16.686 11.0587 16.5132 11.3785C16.3405 11.6983 16.0846 11.9868 15.7614 12.2258C15.4536 12.4735 15.0842 12.67 14.6757 12.8032C14.2672 12.9364 13.8282 13.0035 13.3852 13.0006L3.70498 13.0063Z" fill="white"/>
<path d="M19.8576 12.9944L19.8448 0.216579L32.892 0.209473C33.7882 0.214952 34.6461 0.492841 35.2824 0.98376C35.9187 1.47468 36.2829 2.13969 36.2972 2.83669V6.14204C36.3014 6.4871 36.2145 6.82917 36.0419 7.14706C35.8693 7.46496 35.6147 7.75192 35.2937 7.99019C34.9838 8.24107 34.6112 8.43999 34.1988 8.5747C33.7864 8.70941 33.3429 8.77707 32.8956 8.77352L23.3908 8.79627V12.9902L19.8576 12.9944ZM24.1457 6.0084H31.9598H32.7147V2.96464H31.9616H24.1476H23.3927V6.00414L24.1457 6.0084Z" fill="white"/>
<path d="M38.5473 12.985L38.5363 2.82015C38.5388 2.12317 38.8954 1.45522 39.5286 0.961978C40.1617 0.46874 41.0199 0.190248 41.916 0.187248H51.5798C52.0263 0.182531 52.4693 0.248541 52.8819 0.381255C53.2945 0.513969 53.668 0.710609 53.9798 0.959205C54.3031 1.198 54.5594 1.4862 54.7328 1.80571C54.9061 2.12522 54.9926 2.46914 54.9869 2.81589L54.9979 12.9807H51.4098V8.85792H42.0878V12.9807L38.5473 12.985ZM42.0824 6.08712H51.4044V3.54662V2.95948H50.6495H42.8354H42.0824V3.54662V6.08712Z" fill="white"/>
<path d="M61.5471 12.9704C60.6516 12.9682 59.7935 12.6908 59.1598 12.1987C58.5261 11.7066 58.1681 11.0397 58.1637 10.3432V2.80843C58.1661 2.11096 58.5233 1.44258 59.1572 0.949258C59.7912 0.455939 60.6503 0.177773 61.5471 0.175522L74.5704 0.166992V2.93922L62.461 2.94775H61.7061V3.53489V9.61247V10.1982H62.461L74.5704 10.1897V12.9619L61.5471 12.9704Z" fill="white"/>
<path d="M77.5717 12.9607L77.5589 0.165756L92.7519 0.157227V2.92945L81.1451 2.93656V5.17567H90.4891V7.94789H81.1433V10.187L92.7501 10.1799V12.9521L77.5717 12.9607Z" fill="white"/>
<path d="M7.19798 19.8188C7.19968 19.6801 7.1647 19.5427 7.09521 19.415C7.02571 19.2874 6.9232 19.1722 6.79403 19.0767C6.66928 18.9774 6.51989 18.8988 6.35493 18.8458C6.18998 18.7928 6.01289 18.7664 5.83442 18.7682H1.96852C1.61024 18.7697 1.26723 18.8812 1.01422 19.0785C0.761216 19.2758 0.618711 19.5429 0.617752 19.8216V23.8875H2.03433V22.2356H5.76313V23.8847H7.19798V19.8188ZM2.03433 21.1295V19.8785H5.76313V21.1295H2.03433Z" fill="white"/>
<path d="M15.3026 23.8744C15.4812 23.8759 15.6583 23.8492 15.8233 23.796C15.9882 23.7427 16.1376 23.6639 16.2622 23.5645C16.3909 23.4685 16.4928 23.3529 16.5616 23.225C16.6305 23.0971 16.6648 22.9596 16.6625 22.8209V19.807C16.6642 19.6684 16.6293 19.531 16.5598 19.4033C16.4903 19.2757 16.3877 19.1605 16.2586 19.0649C16.1338 18.9656 15.9844 18.8871 15.8195 18.8341C15.6545 18.781 15.4774 18.7546 15.299 18.7564H10.0805V23.8744H15.3026ZM11.7968 19.8667H15.2295V22.7669H11.5007V19.8667H11.7968Z" fill="white"/>
<path d="M23.9812 23.8689L27.7868 18.7495H26.1509L23.3945 22.4686L20.6308 18.7538H18.9857L22.8023 23.8703L23.9812 23.8689Z" fill="white"/>
<path d="M36.2716 22.7527H31.6289V21.8571H35.3669V20.7482H31.6289V19.8525H36.2716V18.7437H30.1941V23.8616H31.6454C33.1308 23.5887 34.6723 23.3517 36.2698 23.1508L36.2716 22.7527Z" fill="white"/>
<path d="M40.419 20.4329L42.7696 22.6052C43.6933 22.5635 44.6316 22.5369 45.5845 22.5256V18.7383H44.146V22.1503L40.4592 18.7383H38.9969V22.8611C39.4649 22.8184 39.9383 22.78 40.4135 22.7459L40.419 20.4329Z" fill="white"/>
<path d="M52.1062 19.8428H54.6835V18.7339H48.1033V19.8428H50.6805V22.6264C51.1338 22.6491 51.6091 22.6776 52.1062 22.7117V19.8428Z" fill="white"/>
<path d="M62.4116 23.8464C62.5885 23.8473 62.7637 23.8203 62.9268 23.767C63.0898 23.7138 63.2373 23.6353 63.3603 23.5365C63.4895 23.4408 63.5919 23.3253 63.6611 23.1974C63.7303 23.0695 63.7648 22.9318 63.7624 22.793V18.7271H62.3276V22.5015V22.7361H58.5988V22.5015V18.7271H57.1785V22.793C57.1775 22.9402 57.218 23.0858 57.2973 23.2195C58.5622 23.3858 59.8965 23.5891 61.2912 23.8379L62.4116 23.8464Z" fill="white"/>
<path d="M68.0048 23.8419V22.1643L69.8875 22.1558L71.7153 23.8404H73.1776V23.4637L71.7519 22.1572H71.8158C72.1742 22.1546 72.5171 22.0431 72.7712 21.8466C73.0253 21.65 73.1705 21.3839 73.1757 21.1052V19.783C73.1773 19.645 73.1424 19.5081 73.0732 19.381C73.0041 19.2538 72.9021 19.1391 72.7736 19.0438C72.6494 18.9436 72.5002 18.8643 72.3352 18.8105C72.1703 18.7567 71.9929 18.7297 71.814 18.731H66.5955V23.8419H68.0048ZM68.31 19.8328H71.7281V21.0497H67.9993V19.8328H68.31Z" fill="white"/>
<path d="M82.0591 23.8333V22.7244L77.4164 22.7272L77.4145 21.8316L81.1525 21.8302V20.7213L77.4145 20.7227L77.4127 19.8271L82.0554 19.8242V18.7153L75.9778 18.7196L75.9815 23.8376L82.0591 23.8333Z" fill="white"/>
<path d="M91.3518 21.7661C91.3542 21.6275 91.3197 21.4901 91.2505 21.3624C91.1813 21.2347 91.0789 21.1195 90.9497 21.024C90.8264 20.9252 90.6786 20.8469 90.5152 20.7939C90.3518 20.7408 90.1763 20.7142 89.9992 20.7155H86.1882V19.8185H89.917V20.2449H91.3518V19.7616C91.3542 19.623 91.3197 19.4855 91.2505 19.3578C91.1813 19.2301 91.0789 19.1149 90.9497 19.0195C90.8264 18.9207 90.6786 18.8424 90.5152 18.7893C90.3518 18.7363 90.1763 18.7097 89.9992 18.711H86.1242C85.7656 18.7121 85.4221 18.8235 85.1687 19.0209C84.9153 19.2182 84.7726 19.4855 84.7716 19.7644V20.7738C84.7735 21.0522 84.9167 21.3188 85.17 21.5155C85.4233 21.7123 85.7662 21.8233 86.1242 21.8244H89.917V22.72H86.1882V22.3007H84.7716V22.7769C84.7735 23.0553 84.9167 23.3219 85.17 23.5187C85.4233 23.7154 85.7662 23.8264 86.1242 23.8275H89.9992C90.3571 23.8246 90.6992 23.7126 90.9521 23.5156C91.205 23.3186 91.3485 23.0524 91.3518 22.7741V21.7661Z" fill="white"/>
<path d="M7.07735 32.7554C11.5263 30.1595 25.7999 22.5195 46.5587 22.5195C52.1209 22.5195 69.4323 23.0683 86.0401 32.7554C80.797 30.6148 75.2844 28.8998 69.5895 27.6375C62.1004 25.965 54.3504 25.1038 46.5587 25.0785C38.7661 25.0938 31.0144 25.9551 23.5279 27.6375C17.8374 28.9096 12.3261 30.6243 7.07735 32.7554V32.7554Z" fill="white"/>
</g>
<defs>
<clipPath id="clip0_737_315">
<rect width="92.4522" height="32.5986" fill="white" transform="translate(0.3125 0.157227)"/>
</clipPath>
</defs>
</svg>
